<svg width="103" height="26" viewBox="0 0 103 26" fill="none" xmlns="http://www.w3.org/2000/svg">
<path d="M12.1624 19.012C10.9864 20.468 9.23174 21.196 6.89841 21.196C5.10641 21.196 3.63174 20.552 2.47441 19.264C1.26107 17.9013 0.654406 16.1093 0.654406 13.888C0.654406 11.7227 1.22374 9.97733 2.36241 8.652C3.55707 7.28933 5.21841 6.608 7.34641 6.608C8.41041 6.608 9.81041 6.944 11.5464 7.616V11.312H10.4264C10.1651 11.312 10.0064 11.1813 9.95041 10.92C9.93174 10.864 9.89441 10.5093 9.83841 9.856L9.75441 8.932C9.54907 8.85733 9.34374 8.80133 9.13841 8.764C8.95174 8.72667 8.82107 8.69867 8.74641 8.68C8.24241 8.60533 7.71974 8.568 7.17841 8.568C6.69307 8.568 6.17974 8.68933 5.63841 8.932C5.13441 9.156 4.69574 9.50133 4.32241 9.968C3.61307 10.9013 3.25841 12.208 3.25841 13.888C3.25841 15.568 3.63174 16.8933 4.37841 17.864C5.10641 18.7973 6.10507 19.264 7.37441 19.264C8.55041 19.264 9.58641 18.872 10.4824 18.088C10.6317 17.9387 10.8184 17.864 11.0424 17.864C11.2477 17.864 11.3971 17.9387 11.4904 18.088L12.1624 19.012ZM19.7539 19.264C20.0526 19.32 20.2019 19.4973 20.2019 19.796V21H13.6499V19.796C13.6499 19.4973 13.7992 19.32 14.0979 19.264L15.6659 18.956V2.408C14.8072 2.24 14.2846 2.128 14.0979 2.072C13.7992 2.016 13.6499 1.848 13.6499 1.568V0.363999H18.1859V18.928C19.0446 19.096 19.5672 19.208 19.7539 19.264ZM23.787 3.612C23.6377 3.46267 23.507 3.276 23.395 3.052C23.3017 2.86533 23.255 2.64133 23.255 2.38C23.255 2.1 23.3017 1.86667 23.395 1.68C23.5257 1.41867 23.6563 1.22267 23.787 1.092C23.9363 0.942666 24.123 0.811999 24.347 0.699999C24.5337 0.606666 24.7577 0.559999 25.019 0.559999C25.2803 0.559999 25.5043 0.606666 25.691 0.699999C25.915 0.811999 26.1017 0.942666 26.251 1.092C26.3817 1.22267 26.5123 1.41867 26.643 1.68C26.755 1.904 26.811 2.13733 26.811 2.38C26.811 2.604 26.755 2.828 26.643 3.052C26.531 3.276 26.4003 3.46267 26.251 3.612C26.1017 3.76133 25.915 3.892 25.691 4.004C25.5043 4.09733 25.2803 4.144 25.019 4.144C24.7577 4.144 24.5337 4.09733 24.347 4.004C24.123 3.892 23.9363 3.76133 23.787 3.612ZM27.847 19.264C27.9777 19.2827 28.0803 19.348 28.155 19.46C28.2297 19.5533 28.267 19.6653 28.267 19.796V21H21.743V19.796C21.743 19.6653 21.7803 19.5533 21.855 19.46C21.9297 19.348 22.0323 19.2827 22.163 19.264L23.787 18.956V8.848L22.163 8.54C22.0323 8.52133 21.9297 8.46533 21.855 8.372C21.7803 8.26 21.743 8.13867 21.743 8.008V6.832H26.251V18.956L27.847 19.264ZM33.7848 9.016C35.1474 7.37333 36.7341 6.552 38.5448 6.552C40.2061 6.552 41.5128 7.168 42.4648 8.4C43.4354 9.70667 43.9208 11.5173 43.9208 13.832C43.9208 15.96 43.3794 17.7053 42.2968 19.068C41.1581 20.4867 39.7208 21.196 37.9848 21.196C36.2488 21.196 34.8861 20.6453 33.8968 19.544V23.744L34.6528 23.912L35.4648 24.08C35.7634 24.136 35.9128 24.3133 35.9128 24.612V25.816H29.3608V24.612C29.3608 24.3133 29.5101 24.136 29.8088 24.08L31.3768 23.772V8.876C30.5181 8.708 29.9954 8.596 29.8088 8.54C29.5101 8.484 29.3608 8.30667 29.3608 8.008V6.832H32.8888C33.2248 6.832 33.4488 7 33.5608 7.336L33.7568 9.016H33.7848ZM33.8968 17.584C34.7368 18.704 35.8194 19.264 37.1448 19.264C38.5261 19.264 39.5714 18.7973 40.2808 17.864C40.9901 16.9307 41.3448 15.5867 41.3448 13.832C41.3448 12.096 41.0368 10.7893 40.4208 9.912C39.8048 9.016 38.8994 8.568 37.7048 8.568C36.2301 8.568 34.9608 9.28667 33.8968 10.724V17.584ZM68.3273 8.064C68.3273 8.344 68.1873 8.512 67.9073 8.568C67.8513 8.568 67.7673 8.58667 67.6553 8.624C67.5433 8.64267 67.394 8.67067 67.2073 8.708C67.002 8.74533 66.8433 8.78267 66.7313 8.82C66.638 8.83867 66.5633 8.848 66.5073 8.848L62.5593 21H60.5993C60.338 21 60.17 20.8507 60.0953 20.552L56.9593 10.92C56.9033 10.7707 56.838 10.5467 56.7633 10.248C56.7447 10.1547 56.726 10.0613 56.7073 9.968C56.6887 9.856 56.6607 9.744 56.6233 9.632C56.6047 9.744 56.586 9.856 56.5673 9.968C56.5487 10.08 56.53 10.192 56.5113 10.304L56.3433 10.92L53.1513 20.524C53.0393 20.8413 52.8527 21 52.5913 21H50.6873L46.7673 8.82C46.674 8.82 46.5153 8.792 46.2913 8.736C46.0487 8.68 45.8527 8.63333 45.7033 8.596C45.554 8.55867 45.442 8.54 45.3673 8.54C45.0687 8.484 44.9193 8.30667 44.9193 8.008V6.832H51.2473V8.008C51.2473 8.30667 51.1073 8.484 50.8273 8.54C50.6033 8.596 50.37 8.64267 50.1273 8.68L49.2873 8.848L51.5273 16.464C51.5647 16.6507 51.602 16.8187 51.6393 16.968C51.6767 17.1173 51.7047 17.248 51.7233 17.36C51.854 17.976 51.9193 18.3213 51.9193 18.396C51.9753 18.0973 52.162 17.4533 52.4793 16.464L55.4473 7.28C55.5593 6.944 55.7833 6.776 56.1193 6.776H57.2113C57.566 6.776 57.7993 6.944 57.9113 7.28L60.8513 16.464L61.3553 18.368C61.4673 17.696 61.6073 17.0613 61.7753 16.464L64.0713 8.848C63.978 8.848 63.4367 8.74533 62.4473 8.54C62.1487 8.484 61.9993 8.30667 61.9993 8.008V6.832L68.3273 6.86V8.064ZM71.7753 3.612C71.6259 3.46267 71.4953 3.276 71.3833 3.052C71.2899 2.86533 71.2433 2.64133 71.2433 2.38C71.2433 2.1 71.2899 1.86667 71.3833 1.68C71.5139 1.41867 71.6446 1.22267 71.7753 1.092C71.9246 0.942666 72.1113 0.811999 72.3353 0.699999C72.5219 0.606666 72.7459 0.559999 73.0073 0.559999C73.2686 0.559999 73.4926 0.606666 73.6793 0.699999C73.9033 0.811999 74.0899 0.942666 74.2393 1.092C74.3699 1.22267 74.5006 1.41867 74.6313 1.68C74.7433 1.904 74.7993 2.13733 74.7993 2.38C74.7993 2.604 74.7433 2.828 74.6313 3.052C74.5193 3.276 74.3886 3.46267 74.2393 3.612C74.0899 3.76133 73.9033 3.892 73.6793 4.004C73.4926 4.09733 73.2686 4.144 73.0073 4.144C72.7459 4.144 72.5219 4.09733 72.3353 4.004C72.1113 3.892 71.9246 3.76133 71.7753 3.612ZM75.8353 19.264C75.9659 19.2827 76.0686 19.348 76.1433 19.46C76.2179 19.5533 76.2553 19.6653 76.2553 19.796V21H69.7313V19.796C69.7313 19.6653 69.7686 19.5533 69.8433 19.46C69.9179 19.348 70.0206 19.2827 70.1513 19.264L71.7753 18.956V8.848L70.1513 8.54C70.0206 8.52133 69.9179 8.46533 69.8433 8.372C69.7686 8.26 69.7313 8.13867 69.7313 8.008V6.832H74.2393V18.956L75.8353 19.264ZM83.425 6.608C84.3957 6.608 85.6277 6.86 87.121 7.364V11.004H86.029C85.7677 11.004 85.609 10.8733 85.553 10.612L85.385 8.764C84.5077 8.55867 83.7797 8.456 83.201 8.456H83.173C82.4077 8.456 81.7637 8.66133 81.241 9.072C80.737 9.464 80.485 9.89333 80.485 10.36C80.485 10.8453 80.597 11.2 80.821 11.424C81.1944 11.8533 81.7357 12.18 82.445 12.404L83.285 12.656C83.4344 12.6933 83.733 12.7867 84.181 12.936L85.525 13.44C85.8984 13.5707 86.2904 13.8133 86.701 14.168C87.4664 14.7653 87.849 15.5867 87.849 16.632C87.849 17.9947 87.3917 19.0773 86.477 19.88C85.4877 20.7573 84.237 21.196 82.725 21.196C81.1757 21.196 79.645 20.944 78.133 20.44V16.744H79.141C79.365 16.744 79.505 16.856 79.561 17.08L79.729 18.872C80.4757 19.2453 81.437 19.432 82.613 19.432C83.509 19.432 84.237 19.1987 84.797 18.732C85.2824 18.3027 85.525 17.8267 85.525 17.304C85.525 16.7627 85.413 16.3707 85.189 16.128C84.9277 15.8293 84.6477 15.6053 84.349 15.456C83.9384 15.2507 83.5464 15.1013 83.173 15.008C81.7917 14.56 80.9237 14.2613 80.569 14.112C80.121 13.9067 79.701 13.6453 79.309 13.328C78.525 12.6747 78.133 11.7973 78.133 10.696C78.133 9.576 78.581 8.624 79.477 7.84C80.4104 7.01867 81.7264 6.608 83.425 6.608ZM96.3483 6.608C97.1697 6.608 97.9443 6.748 98.6723 7.028C99.419 7.308 100.035 7.70933 100.52 8.232C101.08 8.82933 101.491 9.492 101.752 10.22C102.051 11.06 102.2 11.956 102.2 12.908C102.2 13.3373 102.163 13.5987 102.088 13.692C101.995 13.8227 101.827 13.888 101.584 13.888H92.1763C92.1763 14.784 92.2883 15.568 92.5123 16.24C92.699 16.8187 93.0163 17.36 93.4643 17.864C93.875 18.3307 94.3417 18.6667 94.8643 18.872C95.4243 19.096 96.0217 19.208 96.6563 19.208C97.3283 19.208 97.8697 19.1427 98.2803 19.012C98.6723 18.8813 99.0643 18.7227 99.4563 18.536C99.867 18.3307 100.147 18.1813 100.296 18.088C100.539 17.9387 100.726 17.864 100.856 17.864C101.062 17.864 101.22 17.948 101.332 18.116L102.032 19.04C101.771 19.376 101.398 19.6933 100.912 19.992C100.352 20.3467 99.895 20.58 99.5403 20.692C98.9803 20.8787 98.4763 21.0093 98.0283 21.084C97.4683 21.1773 96.955 21.224 96.4883 21.224C95.5177 21.224 94.6123 21.056 93.7723 20.72C92.9697 20.4027 92.251 19.908 91.6163 19.236C91.019 18.62 90.5523 17.8267 90.2163 16.856C89.8803 15.904 89.7123 14.8213 89.7123 13.608C89.7123 12.6373 89.871 11.7227 90.1883 10.864C90.5057 9.98667 90.9443 9.24 91.5043 8.624C92.083 7.98933 92.783 7.49467 93.6043 7.14C94.4257 6.78533 95.3403 6.608 96.3483 6.608ZM96.4043 8.428C95.191 8.428 94.2483 8.77333 93.5763 9.464C92.8857 10.192 92.4563 11.1627 92.2883 12.376H99.9883C99.9883 11.7973 99.9043 11.2747 99.7363 10.808C99.531 10.2293 99.307 9.80933 99.0643 9.548C98.747 9.212 98.3643 8.94133 97.9163 8.736C97.487 8.54933 96.9737 8.456 96.3763 8.456L96.4043 8.428Z" fill="white"/>
</svg>
