<svg width="66" height="18" viewBox="0 0 66 18" fill="none" xmlns="http://www.w3.org/2000/svg">
<path d="M7.81311 12.722C7.05711 13.658 5.92911 14.126 4.42911 14.126C3.27711 14.126 2.32911 13.712 1.58511 12.884C0.805109 12.008 0.415109 10.856 0.415109 9.428C0.415109 8.036 0.781109 6.914 1.51311 6.062C2.28111 5.186 3.34911 4.748 4.71711 4.748C5.40111 4.748 6.30111 4.964 7.41711 5.396V7.772H6.69711C6.52911 7.772 6.42711 7.688 6.39111 7.52C6.37911 7.484 6.35511 7.256 6.31911 6.836L6.26511 6.242C6.13311 6.194 6.00111 6.158 5.86911 6.134C5.74911 6.11 5.66511 6.092 5.61711 6.08C5.29311 6.032 4.95711 6.008 4.60911 6.008C4.29711 6.008 3.96711 6.086 3.61911 6.242C3.29511 6.386 3.01311 6.608 2.77311 6.908C2.31711 7.508 2.08911 8.348 2.08911 9.428C2.08911 10.508 2.32911 11.36 2.80911 11.984C3.27711 12.584 3.91911 12.884 4.73511 12.884C5.49111 12.884 6.15711 12.632 6.73311 12.128C6.82911 12.032 6.94911 11.984 7.09311 11.984C7.22511 11.984 7.32111 12.032 7.38111 12.128L7.81311 12.722ZM12.6934 12.884C12.8854 12.92 12.9814 13.034 12.9814 13.226V14H8.76936V13.226C8.76936 13.034 8.86536 12.92 9.05736 12.884L10.0654 12.686V2.048C9.51336 1.94 9.17736 1.868 9.05736 1.832C8.86536 1.796 8.76936 1.688 8.76936 1.508V0.733999H11.6854V12.668C12.2374 12.776 12.5734 12.848 12.6934 12.884ZM15.2861 2.822C15.1901 2.726 15.1061 2.606 15.0341 2.462C14.9741 2.342 14.9441 2.198 14.9441 2.03C14.9441 1.85 14.9741 1.7 15.0341 1.58C15.1181 1.412 15.2021 1.286 15.2861 1.202C15.3821 1.106 15.5021 1.022 15.6461 0.95C15.7661 0.89 15.9101 0.86 16.0781 0.86C16.2461 0.86 16.3901 0.89 16.5101 0.95C16.6541 1.022 16.7741 1.106 16.8701 1.202C16.9541 1.286 17.0381 1.412 17.1221 1.58C17.1941 1.724 17.2301 1.874 17.2301 2.03C17.2301 2.174 17.1941 2.318 17.1221 2.462C17.0501 2.606 16.9661 2.726 16.8701 2.822C16.7741 2.918 16.6541 3.002 16.5101 3.074C16.3901 3.134 16.2461 3.164 16.0781 3.164C15.9101 3.164 15.7661 3.134 15.6461 3.074C15.5021 3.002 15.3821 2.918 15.2861 2.822ZM17.8961 12.884C17.9801 12.896 18.0461 12.938 18.0941 13.01C18.1421 13.07 18.1661 13.142 18.1661 13.226V14H13.9721V13.226C13.9721 13.142 13.9961 13.07 14.0441 13.01C14.0921 12.938 14.1581 12.896 14.2421 12.884L15.2861 12.686V6.188L14.2421 5.99C14.1581 5.978 14.0921 5.942 14.0441 5.882C13.9961 5.81 13.9721 5.732 13.9721 5.648V4.892H16.8701V12.686L17.8961 12.884ZM21.7132 6.296C22.5892 5.24 23.6092 4.712 24.7732 4.712C25.8412 4.712 26.6812 5.108 27.2932 5.9C27.9172 6.74 28.2292 7.904 28.2292 9.392C28.2292 10.76 27.8812 11.882 27.1852 12.758C26.4532 13.67 25.5292 14.126 24.4132 14.126C23.2972 14.126 22.4212 13.772 21.7852 13.064V15.764L22.2712 15.872L22.7932 15.98C22.9852 16.016 23.0812 16.13 23.0812 16.322V17.096H18.8692V16.322C18.8692 16.13 18.9652 16.016 19.1572 15.98L20.1652 15.782V6.206C19.6132 6.098 19.2772 6.026 19.1572 5.99C18.9652 5.954 18.8692 5.84 18.8692 5.648V4.892H21.1372C21.3532 4.892 21.4972 5 21.5692 5.216L21.6952 6.296H21.7132ZM21.7852 11.804C22.3252 12.524 23.0212 12.884 23.8732 12.884C24.7612 12.884 25.4332 12.584 25.8892 11.984C26.3452 11.384 26.5732 10.52 26.5732 9.392C26.5732 8.276 26.3752 7.436 25.9792 6.872C25.5832 6.296 25.0012 6.008 24.2332 6.008C23.2852 6.008 22.4692 6.47 21.7852 7.394V11.804ZM43.9191 5.684C43.9191 5.864 43.8291 5.972 43.6491 6.008C43.6131 6.008 43.5591 6.02 43.4871 6.044C43.4151 6.056 43.3191 6.074 43.1991 6.098C43.0671 6.122 42.9651 6.146 42.8931 6.17C42.8331 6.182 42.7851 6.188 42.7491 6.188L40.2111 14H38.9511C38.7831 14 38.6751 13.904 38.6271 13.712L36.6111 7.52C36.5751 7.424 36.5331 7.28 36.4851 7.088C36.4731 7.028 36.4611 6.968 36.4491 6.908C36.4371 6.836 36.4191 6.764 36.3951 6.692C36.3831 6.764 36.3711 6.836 36.3591 6.908C36.3471 6.98 36.3351 7.052 36.3231 7.124L36.2151 7.52L34.1631 13.694C34.0911 13.898 33.9711 14 33.8031 14H32.5791L30.0591 6.17C29.9991 6.17 29.8971 6.152 29.7531 6.116C29.5971 6.08 29.4711 6.05 29.3751 6.026C29.2791 6.002 29.2071 5.99 29.1591 5.99C28.9671 5.954 28.8711 5.84 28.8711 5.648V4.892H32.9391V5.648C32.9391 5.84 32.8491 5.954 32.6691 5.99C32.5251 6.026 32.3751 6.056 32.2191 6.08L31.6791 6.188L33.1191 11.084C33.1431 11.204 33.1671 11.312 33.1911 11.408C33.2151 11.504 33.2331 11.588 33.2451 11.66C33.3291 12.056 33.3711 12.278 33.3711 12.326C33.4071 12.134 33.5271 11.72 33.7311 11.084L35.6391 5.18C35.7111 4.964 35.8551 4.856 36.0711 4.856H36.7731C37.0011 4.856 37.1511 4.964 37.2231 5.18L39.1131 11.084L39.4371 12.308C39.5091 11.876 39.5991 11.468 39.7071 11.084L41.1831 6.188C41.1231 6.188 40.7751 6.122 40.1391 5.99C39.9471 5.954 39.8511 5.84 39.8511 5.648V4.892L43.9191 4.91V5.684ZM46.1357 2.822C46.0397 2.726 45.9557 2.606 45.8837 2.462C45.8237 2.342 45.7937 2.198 45.7937 2.03C45.7937 1.85 45.8237 1.7 45.8837 1.58C45.9677 1.412 46.0517 1.286 46.1357 1.202C46.2317 1.106 46.3517 1.022 46.4957 0.95C46.6157 0.89 46.7597 0.86 46.9277 0.86C47.0957 0.86 47.2397 0.89 47.3597 0.95C47.5037 1.022 47.6237 1.106 47.7197 1.202C47.8037 1.286 47.8877 1.412 47.9717 1.58C48.0437 1.724 48.0797 1.874 48.0797 2.03C48.0797 2.174 48.0437 2.318 47.9717 2.462C47.8997 2.606 47.8157 2.726 47.7197 2.822C47.6237 2.918 47.5037 3.002 47.3597 3.074C47.2397 3.134 47.0957 3.164 46.9277 3.164C46.7597 3.164 46.6157 3.134 46.4957 3.074C46.3517 3.002 46.2317 2.918 46.1357 2.822ZM48.7457 12.884C48.8297 12.896 48.8957 12.938 48.9437 13.01C48.9917 13.07 49.0157 13.142 49.0157 13.226V14H44.8217V13.226C44.8217 13.142 44.8457 13.07 44.8937 13.01C44.9417 12.938 45.0077 12.896 45.0917 12.884L46.1357 12.686V6.188L45.0917 5.99C45.0077 5.978 44.9417 5.942 44.8937 5.882C44.8457 5.81 44.8217 5.732 44.8217 5.648V4.892H47.7197V12.686L48.7457 12.884ZM53.6248 4.748C54.2488 4.748 55.0408 4.91 56.0008 5.234V7.574H55.2988C55.1308 7.574 55.0288 7.49 54.9928 7.322L54.8848 6.134C54.3208 6.002 53.8528 5.936 53.4808 5.936H53.4628C52.9708 5.936 52.5568 6.068 52.2208 6.332C51.8968 6.584 51.7348 6.86 51.7348 7.16C51.7348 7.472 51.8068 7.7 51.9508 7.844C52.1908 8.12 52.5388 8.33 52.9948 8.474L53.5348 8.636C53.6308 8.66 53.8228 8.72 54.1108 8.816L54.9748 9.14C55.2148 9.224 55.4668 9.38 55.7308 9.608C56.2228 9.992 56.4688 10.52 56.4688 11.192C56.4688 12.068 56.1748 12.764 55.5868 13.28C54.9508 13.844 54.1468 14.126 53.1748 14.126C52.1788 14.126 51.1948 13.964 50.2228 13.64V11.264H50.8708C51.0148 11.264 51.1048 11.336 51.1408 11.48L51.2488 12.632C51.7288 12.872 52.3468 12.992 53.1028 12.992C53.6788 12.992 54.1468 12.842 54.5068 12.542C54.8188 12.266 54.9748 11.96 54.9748 11.624C54.9748 11.276 54.9028 11.024 54.7588 10.868C54.5908 10.676 54.4108 10.532 54.2188 10.436C53.9548 10.304 53.7028 10.208 53.4628 10.148C52.5748 9.86 52.0168 9.668 51.7888 9.572C51.5008 9.44 51.2308 9.272 50.9788 9.068C50.4748 8.648 50.2228 8.084 50.2228 7.376C50.2228 6.656 50.5108 6.044 51.0868 5.54C51.6868 5.012 52.5328 4.748 53.6248 4.748ZM61.9326 4.748C62.4606 4.748 62.9586 4.838 63.4266 5.018C63.9066 5.198 64.3026 5.456 64.6146 5.792C64.9746 6.176 65.2386 6.602 65.4066 7.07C65.5986 7.61 65.6946 8.186 65.6946 8.798C65.6946 9.074 65.6706 9.242 65.6226 9.302C65.5626 9.386 65.4546 9.428 65.2986 9.428H59.2506C59.2506 10.004 59.3226 10.508 59.4666 10.94C59.5866 11.312 59.7906 11.66 60.0786 11.984C60.3426 12.284 60.6426 12.5 60.9786 12.632C61.3386 12.776 61.7226 12.848 62.1306 12.848C62.5626 12.848 62.9106 12.806 63.1746 12.722C63.4266 12.638 63.6786 12.536 63.9306 12.416C64.1946 12.284 64.3746 12.188 64.4706 12.128C64.6266 12.032 64.7466 11.984 64.8306 11.984C64.9626 11.984 65.0646 12.038 65.1366 12.146L65.5866 12.74C65.4186 12.956 65.1786 13.16 64.8666 13.352C64.5066 13.58 64.2126 13.73 63.9846 13.802C63.6246 13.922 63.3006 14.006 63.0126 14.054C62.6526 14.114 62.3226 14.144 62.0226 14.144C61.3986 14.144 60.8166 14.036 60.2766 13.82C59.7606 13.616 59.2986 13.298 58.8906 12.866C58.5066 12.47 58.2066 11.96 57.9906 11.336C57.7746 10.724 57.6666 10.028 57.6666 9.248C57.6666 8.624 57.7686 8.036 57.9726 7.484C58.1766 6.92 58.4586 6.44 58.8186 6.044C59.1906 5.636 59.6406 5.318 60.1686 5.09C60.6966 4.862 61.2846 4.748 61.9326 4.748ZM61.9686 5.918C61.1886 5.918 60.5826 6.14 60.1506 6.584C59.7066 7.052 59.4306 7.676 59.3226 8.456H64.2726C64.2726 8.084 64.2186 7.748 64.1106 7.448C63.9786 7.076 63.8346 6.806 63.6786 6.638C63.4746 6.422 63.2286 6.248 62.9406 6.116C62.6646 5.996 62.3346 5.936 61.9506 5.936L61.9686 5.918Z" fill="white"/>
</svg>
